<?xml version="1.0" encoding="UTF-8" standalone="no"?>
<svg xmlns="http://www.w3.org/2000/svg" viewBox="0 0 24 24" width="24" height="24">
  <path d="M6.763 10.036c0 .296.032.535.088.71.064.176.144.368.256.576.04.063.056.127.056.183 0 .08-.048.16-.152.24l-.503.335a.383.383 0 0 1-.208.072c-.08 0-.16-.04-.239-.112a2.47 2.47 0 0 1-.287-.375 6.18 6.18 0 0 1-.248-.471c-.622.734-1.405 1.101-2.347 1.101-.67 0-1.205-.191-1.596-.574-.391-.384-.59-.894-.59-1.533 0-.678.239-1.23.726-1.644.487-.415 1.133-.623 1.955-.623.272 0 .551.024.846.064.296.04.6.104.918.176v-.583c0-.607-.127-1.03-.375-1.277-.255-.248-.67-.367-1.26-.367-.271 0-.54.024-.814.072-.271.048-.535.112-.782.176-.128.04-.223.072-.303.096-.8.024-.143.04-.183.04-.152 0-.224-.088-.224-.271v-.423c0-.144.04-.255.112-.32a1.09 1.09 0 0 1 .336-.183c.264-.08.575-.152.958-.2.383-.048.79-.08 1.222-.08.928 0 1.608.207 2.035.63.431.425.647 1.07.647 1.939v2.53zm-3.25 1.21c.263 0 .534-.048.822-.144.287-.096.543-.271.758-.51.128-.152.224-.32.272-.512.047-.191.08-.423.08-.694v-.335a6.66 6.66 0 0 0-.735-.136 6.02 6.02 0 0 0-.75-.048c-.535 0-.926.104-1.19.32-.263.215-.39.518-.39.917 0 .375.095.655.295.846.191.2.47.296.838.296zm6.41.862c-.144 0-.24-.024-.304-.08-.064-.048-.12-.16-.168-.311L7.586 5.55a1.398 1.398 0 0 1-.072-.32c0-.128.064-.2.191-.2h.782c.151 0 .255.025.31.08.065.048.113.16.16.312l1.342 5.284 1.245-5.284c.04-.16.088-.264.151-.312a.549.549 0 0 1 .32-.08h.638c.152 0 .256.025.32.08.063.048.12.16.151.312l1.261 5.348 1.381-5.348c.048-.16.104-.264.16-.312a.52.52 0 0 1 .311-.08h.743c.127 0 .2.065.2.2 0 .04-.009.08-.017.128a1.137 1.137 0 0 1-.056.2l-1.923 6.17c-.048.16-.104.263-.168.311a.51.51 0 0 1-.303.08h-.687c-.151 0-.255-.024-.32-.08-.063-.056-.119-.16-.15-.32l-1.238-5.148-1.23 5.14c-.04.16-.087.264-.15.32-.065.056-.177.08-.32.08zm10.256.215c-.415 0-.83-.048-1.229-.143-.399-.096-.71-.2-.918-.32-.128-.071-.215-.151-.247-.223a.563.563 0 0 1-.048-.224v-.439c0-.182.08-.271.24-.271.063 0 .127.008.191.024.063.016.16.048.287.08.319.097.654.167 1.006.215.352.048.695.08 1.029.8.462 0 .827-.072 1.086-.216.26-.144.391-.359.391-.655 0-.19-.06-.352-.181-.47-.12-.12-.342-.232-.67-.344l-1.045-.336c-.534-.168-.93-.392-1.19-.67-.259-.28-.383-.59-.383-.91 0-.422.164-.774.494-1.062.33-.288.813-.431 1.453-.431.135 0 .275.008.423.024.151.016.294.04.431.064.14.032.271.056.399.08.127.024.231.053.312.08a.766.766 0 0 1 .24.143.293.293 0 0 1 .065.2v.407c0 .19-.073.271-.224.271a.689.689 0 0 1-.271-.056 3.977 3.977 0 0 0-.886-.176 4.287 4.287 0 0 0-.84-.08c-.407 0-.734.071-.974.207-.239.136-.351.34-.351.615 0 .19.059.351.186.47.128.12.351.24.67.344l1.029.328c.535.176.93.392 1.18.67.248.28.375.582.375.91 0 .463-.173.83-.517 1.101-.346.272-.847.407-1.519.407z" fill="#000"/>
</svg>
